<svg width="72px" height="72px" viewBox="0 0 72 72" version="1.1" xmlns="http://www.w3.org/2000/svg" xmlns:xlink="http://www.w3.org/1999/xlink">
    <g id="Symbols" stroke="none" stroke-width="1" fill="none" fill-rule="evenodd">
        <g id="five">
            <rect id="Rectangle" x="0" y="0" width="72" height="72" rx="8"></rect>
            <path d="M25.7304688,37.1953125 L30.9335938,38.484375 C31.1835938,38.234375 31.4492188,37.9960938 31.7304688,37.7695312 C32.0117188,37.5429688 32.3320312,37.34375 32.6914062,37.171875 C33.0507812,37 33.4648438,36.859375 33.9335938,36.75 C34.4023438,36.640625 34.9570312,36.5859375 35.5976562,36.5859375 C36.5507812,36.5859375 37.3789062,36.734375 38.0820312,37.03125 C38.7851562,37.328125 39.3710938,37.75 39.8398438,38.296875 C40.3085938,38.84375 40.65625,39.4960938 40.8828125,40.2539062 C41.109375,41.0117188 41.2226562,41.84375 41.2226562,42.75 C41.2226562,43.671875 41.1328125,44.53125 40.953125,45.328125 C40.7734375,46.125 40.4960938,46.8125 40.1210938,47.390625 C39.7304688,47.96875 39.2265625,48.421875 38.609375,48.75 C37.9921875,49.078125 37.2460938,49.2421875 36.3710938,49.2421875 C34.9492188,49.2421875 33.78125,48.8359375 32.8671875,48.0234375 C31.953125,47.2109375 31.4179688,46.0625 31.2617188,44.578125 L24.8398438,44.578125 C24.8867188,46.15625 25.2421875,47.5585938 25.90625,48.7851562 C26.5703125,50.0117188 27.4335938,51.046875 28.4960938,51.890625 C29.5585938,52.734375 30.7734375,53.375 32.140625,53.8125 C33.5078125,54.25 34.9257812,54.46875 36.3945312,54.46875 C38.3320312,54.46875 40.0117188,54.1640625 41.4335938,53.5546875 C42.8554688,52.9453125 44.0351562,52.1171875 44.9726562,51.0703125 C45.9101562,50.0234375 46.6054688,48.8125 47.0585938,47.4375 C47.5117188,46.0625 47.7382812,44.609375 47.7382812,43.078125 C47.7382812,41.28125 47.5039062,39.671875 47.0351562,38.25 C46.5664062,36.828125 45.8945312,35.625 45.0195312,34.640625 C44.1289062,33.65625 43.0390625,32.9023438 41.75,32.3789062 C40.4609375,31.8554688 38.9960938,31.59375 37.3554688,31.59375 C36.1992188,31.59375 35.1757812,31.7421875 34.2851562,32.0390625 C33.3945312,32.3359375 32.7070312,32.625 32.2226562,32.90625 L33.0429688,25.40625 L46.6132812,25.40625 L46.6132812,19.875 L27.6757812,19.875 L25.7304688,37.1953125 Z" fill="#FFFFFF" fill-rule="nonzero"></path>
        </g>
    </g>
</svg>