<svg width="72px" height="72px" viewBox="0 0 72 72" version="1.1" xmlns="http://www.w3.org/2000/svg" xmlns:xlink="http://www.w3.org/1999/xlink">
    <g id="Symbols" stroke="none" stroke-width="1" fill="none" fill-rule="evenodd">
        <g id="six">
            <rect id="Rectangle" x="0" y="0" width="72" height="72" rx="8"></rect>
            <path d="M42.6992188,19.59375 L41.8320312,19.59375 C39.0039062,19.59375 36.5117188,20.0664062 34.3554688,21.0117188 C32.1992188,21.9570312 30.3945312,23.265625 28.9414062,24.9375 C27.4882812,26.625 26.3945312,28.6210938 25.6601562,30.9257812 C24.9257812,33.2304688 24.5585938,35.734375 24.5585938,38.4375 L24.5585938,40.9453125 C24.5585938,42.8984375 24.8359375,44.6992188 25.390625,46.3476562 C25.9453125,47.9960938 26.7382812,49.421875 27.7695312,50.625 C28.7851562,51.828125 30.0273438,52.7695312 31.4960938,53.4492188 C32.9648438,54.1289062 34.6132812,54.46875 36.4414062,54.46875 C38.1914062,54.46875 39.7695312,54.1679688 41.1757812,53.5664062 C42.5820312,52.9648438 43.7773438,52.140625 44.7617188,51.09375 C45.7460938,50.046875 46.5039062,48.8125 47.0351562,47.390625 C47.5664062,45.96875 47.8320312,44.4296875 47.8320312,42.7734375 C47.8320312,41.2265625 47.6328125,39.7539062 47.234375,38.3554688 C46.8359375,36.9570312 46.2304688,35.7265625 45.4179688,34.6640625 C44.6054688,33.6171875 43.59375,32.7851562 42.3828125,32.1679688 C41.171875,31.5507812 39.7539062,31.2421875 38.1289062,31.2421875 C37.3320312,31.2421875 36.5898438,31.3359375 35.9023438,31.5234375 C35.2148438,31.7109375 34.5820312,31.953125 34.0039062,32.25 C33.4101562,32.5625 32.8789062,32.9101562 32.4101562,33.2929688 C31.9414062,33.6757812 31.5273438,34.0625 31.1679688,34.453125 C31.3085938,33.03125 31.6484375,31.7421875 32.1875,30.5859375 C32.7265625,29.4296875 33.4648438,28.4375 34.4023438,27.609375 C35.3242188,26.78125 36.4453125,26.140625 37.765625,25.6875 C39.0859375,25.234375 40.6054688,25.0078125 42.3242188,25.0078125 L42.6992188,25.0078125 L42.6992188,19.59375 Z M36.2304688,36.46875 C37.0429688,36.46875 37.765625,36.6289062 38.3984375,36.9492188 C39.03125,37.2695312 39.5664062,37.7109375 40.0039062,38.2734375 C40.4414062,38.8515625 40.7773438,39.53125 41.0117188,40.3125 C41.2460938,41.09375 41.3632812,41.9453125 41.3632812,42.8671875 C41.3632812,43.7890625 41.2460938,44.6367188 41.0117188,45.4101562 C40.7773438,46.1835938 40.4414062,46.8515625 40.0039062,47.4140625 C39.5664062,47.9765625 39.0351562,48.4179688 38.4101562,48.7382812 C37.7851562,49.0585938 37.0898438,49.21875 36.3242188,49.21875 C35.5742188,49.21875 34.8789062,49.0625 34.2382812,48.75 C33.5976562,48.4375 33.0429688,47.96875 32.5742188,47.34375 C32.1054688,46.734375 31.7421875,45.9609375 31.484375,45.0234375 C31.2265625,44.0859375 31.0976562,42.9921875 31.0976562,41.7421875 L31.0976562,39.8203125 C31.3164062,39.3515625 31.5859375,38.921875 31.90625,38.53125 C32.2265625,38.140625 32.5820312,37.796875 32.9726562,37.5 C33.4257812,37.171875 33.9257812,36.9179688 34.4726562,36.7382812 C35.0195312,36.5585938 35.6054688,36.46875 36.2304688,36.46875 Z" fill="#FFFFFF" fill-rule="nonzero"></path>
        </g>
    </g>
</svg>