<svg width="72px" height="72px" viewBox="0 0 72 72" version="1.1" xmlns="http://www.w3.org/2000/svg" xmlns:xlink="http://www.w3.org/1999/xlink">
    <g id="Symbols" stroke="none" stroke-width="1" fill="none" fill-rule="evenodd">
        <g id="three">
            <rect id="Rectangle" x="0" y="0" width="72" height="72" rx="8"></rect>
            <path d="M31.9648438,34.078125 L31.9648438,39.140625 L35.5039062,39.140625 C36.3945312,39.140625 37.1953125,39.2421875 37.90625,39.4453125 C38.6171875,39.6484375 39.2304688,39.9609375 39.7460938,40.3828125 C40.2460938,40.8046875 40.6289062,41.34375 40.8945312,42 C41.1601562,42.65625 41.2929688,43.4453125 41.2929688,44.3671875 C41.2929688,45.1015625 41.1796875,45.765625 40.953125,46.359375 C40.7265625,46.953125 40.3945312,47.453125 39.9570312,47.859375 C39.5039062,48.3125 38.9414062,48.65625 38.2695312,48.890625 C37.5976562,49.125 36.8398438,49.2421875 35.9960938,49.2421875 C35.2460938,49.2421875 34.5585938,49.1289062 33.9335938,48.9023438 C33.3085938,48.6757812 32.7695312,48.359375 32.3164062,47.953125 C31.8476562,47.5625 31.4882812,47.0898438 31.2382812,46.5351562 C30.9882812,45.9804688 30.8632812,45.375 30.8632812,44.71875 L24.3476562,44.71875 C24.3476562,46.375 24.671875,47.8125 25.3203125,49.03125 C25.96875,50.25 26.8320312,51.2578125 27.9101562,52.0546875 C28.9882812,52.8671875 30.21875,53.4726562 31.6015625,53.8710938 C32.984375,54.2695312 34.4023438,54.46875 35.8554688,54.46875 C37.5429688,54.46875 39.1171875,54.2460938 40.578125,53.8007812 C42.0390625,53.3554688 43.3007812,52.703125 44.3632812,51.84375 C45.4257812,51 46.2617188,49.953125 46.8710938,48.703125 C47.4804688,47.453125 47.7851562,46.03125 47.7851562,44.4375 C47.7851562,43.53125 47.6757812,42.671875 47.4570312,41.859375 C47.2382812,41.046875 46.9023438,40.296875 46.4492188,39.609375 C45.9960938,38.9375 45.421875,38.3359375 44.7265625,37.8046875 C44.03125,37.2734375 43.2070312,36.8359375 42.2539062,36.4921875 C43.0664062,36.1015625 43.7851562,35.6367188 44.4101562,35.0976562 C45.0351562,34.5585938 45.5585938,33.96875 45.9804688,33.328125 C46.4023438,32.6875 46.7226562,32.0117188 46.9414062,31.3007812 C47.1601562,30.5898438 47.2695312,29.8671875 47.2695312,29.1328125 C47.2695312,27.5390625 46.9921875,26.1367188 46.4375,24.9257812 C45.8828125,23.7148438 45.1054688,22.6953125 44.1054688,21.8671875 C43.1054688,21.0546875 41.9023438,20.4414062 40.4960938,20.0273438 C39.0898438,19.6132812 37.5429688,19.40625 35.8554688,19.40625 C34.2929688,19.40625 32.8359375,19.6328125 31.484375,20.0859375 C30.1328125,20.5390625 28.9570312,21.171875 27.9570312,21.984375 C26.9570312,22.8125 26.171875,23.796875 25.6015625,24.9375 C25.03125,26.078125 24.7460938,27.34375 24.7460938,28.734375 L31.2617188,28.734375 C31.2617188,28.109375 31.3867188,27.546875 31.6367188,27.046875 C31.8867188,26.546875 32.2304688,26.1171875 32.6679688,25.7578125 C33.0898438,25.4140625 33.5859375,25.1484375 34.15625,24.9609375 C34.7265625,24.7734375 35.3398438,24.6796875 35.9960938,24.6796875 C36.7929688,24.6796875 37.4921875,24.7890625 38.09375,25.0078125 C38.6953125,25.2265625 39.1914062,25.53125 39.5820312,25.921875 C39.9726562,26.328125 40.265625,26.8085938 40.4609375,27.3632812 C40.65625,27.9179688 40.7539062,28.53125 40.7539062,29.203125 C40.7539062,29.890625 40.65625,30.5273438 40.4609375,31.1132812 C40.265625,31.6992188 39.9726562,32.1953125 39.5820312,32.6015625 C39.1601562,33.0703125 38.609375,33.4335938 37.9296875,33.6914062 C37.25,33.9492188 36.4414062,34.078125 35.5039062,34.078125 L31.9648438,34.078125 Z" fill="#FFFFFF" fill-rule="nonzero"></path>
        </g>
    </g>
</svg>