<svg width="72px" height="72px" viewBox="0 0 72 72" version="1.1" xmlns="http://www.w3.org/2000/svg" xmlns:xlink="http://www.w3.org/1999/xlink">
    <g id="Symbols" stroke="none" stroke-width="1" fill="none" fill-rule="evenodd">
        <g id="divide">
            <rect id="Rectangle" x="0" y="0" width="72" height="72" rx="8"></rect>
            <path d="M52,39 L52,33 L20,33 L20,39 L52,39 Z M32,23.0328767 C32,24.1579909 32.3592401,25.1004566 33.0777202,25.860274 C33.7962003,26.6200913 34.7702936,27 36,27 C37.2158895,27 38.1865285,26.6237443 38.9119171,25.8712329 C39.6373057,25.1187215 40,24.1726027 40,23.0328767 C40,21.8931507 39.6442142,20.9360731 38.9326425,20.1616438 C38.2210708,19.3872146 37.2435233,19 36,19 C34.7426598,19 33.761658,19.3908676 33.0569948,20.1726027 C32.3523316,20.9543379 32,21.9077626 32,23.0328767 Z M32,49.0328767 C32,50.1579909 32.3592401,51.1004566 33.0777202,51.860274 C33.7962003,52.6200913 34.7702936,53 36,53 C37.2158895,53 38.1865285,52.6237443 38.9119171,51.8712329 C39.6373057,51.1187215 40,50.1726027 40,49.0328767 C40,47.8931507 39.6442142,46.9360731 38.9326425,46.1616438 C38.2210708,45.3872146 37.2435233,45 36,45 C34.7426598,45 33.761658,45.3908676 33.0569948,46.1726027 C32.3523316,46.9543379 32,47.9077626 32,49.0328767 Z" fill="#FFFFFF" fill-rule="nonzero"></path>
        </g>
    </g>
</svg>