<svg width="72px" height="72px" viewBox="0 0 72 72" version="1.1" xmlns="http://www.w3.org/2000/svg" xmlns:xlink="http://www.w3.org/1999/xlink">
    <g id="Symbols" stroke="none" stroke-width="1" fill="none" fill-rule="evenodd">
        <g id="eight" fill-rule="nonzero">
            <rect id="Rectangle" x="0" y="0" width="72" height="72" rx="8"></rect>
            <path d="M46.8242188,28.9453125 C46.8242188,27.3984375 46.5539551,26.0342407 46.0134277,24.8527222 C45.4729004,23.6712036 44.7275391,22.6760254 43.7773438,21.8671875 C42.8085938,21.0546875 41.6679688,20.4414062 40.3554688,20.0273438 C39.0429688,19.6132812 37.6132812,19.40625 36.0664062,19.40625 C34.5202637,19.40625 33.0946655,19.6132812 31.7896118,20.0273438 C30.4845581,20.4414062 29.3635254,21.0546875 28.4265137,21.8671875 C27.4729004,22.6796875 26.7304688,23.6757812 26.1992188,24.8554688 C25.6679688,26.0351562 25.4023438,27.3984375 25.4023438,28.9453125 C25.4023438,29.7890625 25.5174561,30.59375 25.7476807,31.359375 C25.9779053,32.125 26.300293,32.828125 26.7148438,33.46875 C27.1054688,34.078125 27.5861206,34.6330566 28.1567993,35.1335449 C28.727478,35.6340332 29.3640137,36.0634766 30.0664062,36.421875 C29.2382812,36.8125 28.4932251,37.2838745 27.8312378,37.8359985 C27.1692505,38.3881226 26.6027832,39.0092773 26.1318359,39.6994629 C25.6611328,40.4050293 25.296875,41.1760864 25.0390625,42.0126343 C24.78125,42.8491821 24.6523438,43.7355957 24.6523438,44.671875 C24.6523438,46.28125 24.9453125,47.6953125 25.53125,48.9140625 C26.1171875,50.1328125 26.9257812,51.1484375 27.9570312,51.9609375 C28.9846191,52.7890625 30.1987305,53.4140625 31.5993652,53.8359375 C33,54.2578125 34.5124512,54.46875 36.1367188,54.46875 C37.7460938,54.46875 39.2460938,54.2578125 40.6367188,53.8359375 C42.0273438,53.4140625 43.2385254,52.7890625 44.2702637,51.9609375 C45.2854004,51.1484375 46.0859375,50.1328125 46.671875,48.9140625 C47.2578125,47.6953125 47.5507812,46.28125 47.5507812,44.671875 C47.5507812,43.453125 47.3398438,42.328125 46.9179688,41.296875 C46.4960938,40.265625 45.9101562,39.359375 45.1601562,38.578125 C44.7539062,38.140625 44.2929688,37.7460938 43.7773438,37.3945312 C43.2617188,37.0429688 42.7148438,36.7265625 42.1367188,36.4453125 C42.7773438,36.1171875 43.359375,35.7304688 43.8828125,35.2851562 C44.40625,34.8398438 44.8632812,34.359375 45.2539062,33.84375 C45.7539062,33.15625 46.140625,32.4023438 46.4140625,31.5820312 C46.6875,30.7617188 46.8242188,29.8828125 46.8242188,28.9453125 Z M41.0117188,44.2265625 C41.0117188,45.010498 40.890625,45.7103882 40.6484375,46.3262329 C40.40625,46.9420776 40.0742188,47.467041 39.6523438,47.901123 C39.21875,48.3354492 38.703125,48.6675415 38.1054688,48.8973999 C37.5078125,49.1272583 36.8515625,49.2421875 36.1367188,49.2421875 C35.3977051,49.2421875 34.730896,49.1357422 34.1362915,48.9228516 C33.541687,48.7099609 33.0366211,48.4023438 32.6210938,48 C32.1679688,47.578125 31.8164062,47.0480957 31.5664062,46.4099121 C31.3164062,45.7717285 31.1914062,45.0465088 31.1914062,44.2342529 C31.1914062,43.447876 31.3071899,42.7422485 31.5387573,42.1173706 C31.7703247,41.4924927 32.0998535,40.9533691 32.5273438,40.5 C32.9492188,40.0625 33.4619751,39.7265625 34.0656128,39.4921875 C34.6692505,39.2578125 35.3439941,39.140625 36.0898438,39.140625 C36.8398438,39.140625 37.515625,39.2578125 38.1171875,39.4921875 C38.71875,39.7265625 39.2382812,40.0625 39.6757812,40.5 C40.0981445,40.9533691 40.4263916,41.4924927 40.6605225,42.1173706 C40.8946533,42.7422485 41.0117188,43.4453125 41.0117188,44.2265625 Z M40.3320312,29.2434082 C40.3320312,29.9387207 40.2331543,30.5720215 40.0354004,31.1433105 C39.8376465,31.7145996 39.5631104,32.1988525 39.211792,32.5960693 C38.8492432,33.0059814 38.4101562,33.3242188 37.8945312,33.5507812 C37.3789062,33.7773438 36.7960205,33.890625 36.145874,33.890625 C35.4835205,33.890625 34.890625,33.7773438 34.3671875,33.5507812 C33.84375,33.3242188 33.4012451,33.0046387 33.0396729,32.592041 C32.6668701,32.1921387 32.3867188,31.7070312 32.1992188,31.1367188 C32.0117188,30.5664062 31.9179688,29.9335938 31.9179688,29.2382812 C31.9179688,28.5429688 32.0078125,27.9101562 32.1875,27.3398438 C32.3671875,26.7695312 32.6328125,26.2890625 32.984375,25.8984375 C33.3359375,25.5078125 33.7695312,25.2070312 34.2851562,24.9960938 C34.8007812,24.7851562 35.390625,24.6796875 36.0546875,24.6796875 C36.71875,24.6796875 37.3108521,24.7891235 37.8309937,25.0079956 C38.3511353,25.2268677 38.802002,25.5314941 39.1835938,25.921875 C39.5429688,26.328125 39.8242188,26.8125 40.0273438,27.375 C40.2304688,27.9375 40.3320312,28.5603027 40.3320312,29.2434082 Z" fill="#FFFFFF"></path>
        </g>
    </g>
</svg>