<svg width="72px" height="72px" viewBox="0 0 72 72" version="1.1" xmlns="http://www.w3.org/2000/svg" xmlns:xlink="http://www.w3.org/1999/xlink">
    <g id="Symbols" stroke="none" stroke-width="1" fill="none" fill-rule="evenodd">
        <g id="nine">
            <rect id="Rectangle" x="0" y="0" width="72" height="72" rx="8"></rect>
            <path d="M29.8789062,48.8203125 L29.4335938,48.8203125 L29.4335938,54.28125 L29.9257812,54.28125 C32.9414062,54.28125 35.5351562,53.8164062 37.7070312,52.8867188 C39.8789062,51.9570312 41.6679688,50.65625 43.0742188,48.984375 C44.4804688,47.328125 45.5195312,45.359375 46.1914062,43.078125 C46.8632812,40.796875 47.1992188,38.296875 47.1992188,35.578125 L47.1992188,33.328125 C47.1992188,31.296875 46.9375,29.4296875 46.4140625,27.7265625 C45.890625,26.0234375 45.1367188,24.5546875 44.1523438,23.3203125 C43.1523438,22.0859375 41.9414062,21.125 40.5195312,20.4375 C39.0976562,19.75 37.4960938,19.40625 35.7148438,19.40625 C33.9648438,19.40625 32.390625,19.7226562 30.9921875,20.3554688 C29.59375,20.9882812 28.4023438,21.8515625 27.4179688,22.9453125 C26.4335938,24.0390625 25.6796875,25.3164062 25.15625,26.7773438 C24.6328125,28.2382812 24.3710938,29.796875 24.3710938,31.453125 C24.3710938,33.0625 24.5859375,34.5664062 25.015625,35.9648438 C25.4453125,37.3632812 26.0820312,38.578125 26.9257812,39.609375 C27.7539062,40.640625 28.7851562,41.453125 30.0195312,42.046875 C31.2539062,42.640625 32.6835938,42.9375 34.3085938,42.9375 C35.0742188,42.9375 35.7773438,42.8710938 36.4179688,42.7382812 C37.0585938,42.6054688 37.6367188,42.421875 38.1523438,42.1875 C38.6367188,41.984375 39.0820312,41.7421875 39.4882812,41.4609375 C39.8945312,41.1796875 40.2617188,40.875 40.5898438,40.546875 L40.5898438,40.6875 C40.4335938,41.9375 40.1171875,43.0664062 39.640625,44.0742188 C39.1640625,45.0820312 38.5039062,45.9296875 37.6601562,46.6171875 C36.7851562,47.3359375 35.7070312,47.8828125 34.4257812,48.2578125 C33.1445312,48.6328125 31.6289062,48.8203125 29.8789062,48.8203125 Z M35.8554688,37.8984375 C35.0117188,37.8984375 34.2773438,37.7226562 33.6523438,37.3710938 C33.0273438,37.0195312 32.5117188,36.546875 32.1054688,35.953125 C31.6835938,35.359375 31.3710938,34.6640625 31.1679688,33.8671875 C30.9648438,33.0703125 30.8632812,32.234375 30.8632812,31.359375 C30.8632812,30.484375 30.9726562,29.6445312 31.1914062,28.8398438 C31.4101562,28.0351562 31.7226562,27.3203125 32.1289062,26.6953125 C32.5351562,26.0859375 33.0390625,25.5976562 33.640625,25.2304688 C34.2421875,24.8632812 34.9257812,24.6796875 35.6914062,24.6796875 C36.3945312,24.6796875 37.0507812,24.8359375 37.6601562,25.1484375 C38.2695312,25.4609375 38.8007812,25.9296875 39.2539062,26.5546875 C39.7070312,27.1796875 40.0625,27.9609375 40.3203125,28.8984375 C40.578125,29.8359375 40.7070312,30.9296875 40.7070312,32.1796875 L40.7070312,34.5 C40.5195312,34.984375 40.2734375,35.4335938 39.96875,35.8476562 C39.6640625,36.2617188 39.3085938,36.6171875 38.9023438,36.9140625 C38.4804688,37.2265625 38.015625,37.46875 37.5078125,37.640625 C37,37.8125 36.4492188,37.8984375 35.8554688,37.8984375 Z" fill="#FFFFFF" fill-rule="nonzero"></path>
        </g>
    </g>
</svg>