<svg width="72px" height="72px" viewBox="0 0 72 72" version="1.1" xmlns="http://www.w3.org/2000/svg" xmlns:xlink="http://www.w3.org/1999/xlink">
    <g id="Symbols" stroke="none" stroke-width="1" fill="none" fill-rule="evenodd">
        <g id="two">
            <rect id="Rectangle" x="0" y="0" width="72" height="72" rx="8"></rect>
            <path d="M47.7148438,54 L47.7148438,48.7734375 L32.7382812,48.7734375 L39.1601562,41.9765625 C40.2695312,40.8359375 41.2773438,39.7460938 42.1835938,38.7070312 C43.0898438,37.6679688 43.8710938,36.6484375 44.5273438,35.6484375 C45.1679688,34.6484375 45.6640625,33.6367188 46.015625,32.6132812 C46.3671875,31.5898438 46.5429688,30.515625 46.5429688,29.390625 C46.5429688,27.90625 46.3085938,26.5507812 45.8398438,25.3242188 C45.3710938,24.0976562 44.6914062,23.046875 43.8007812,22.171875 C42.8945312,21.296875 41.7734375,20.6171875 40.4375,20.1328125 C39.1015625,19.6484375 37.5664062,19.40625 35.8320312,19.40625 C34.0195312,19.40625 32.3671875,19.6992188 30.875,20.2851562 C29.3828125,20.8710938 28.1132812,21.671875 27.0664062,22.6875 C26.0039062,23.703125 25.1835938,24.8867188 24.6054688,26.2382812 C24.0273438,27.5898438 23.7382812,29.0234375 23.7382812,30.5390625 L30.2773438,30.5390625 C30.2773438,29.6171875 30.3945312,28.796875 30.6289062,28.078125 C30.8632812,27.359375 31.2070312,26.7578125 31.6601562,26.2734375 C32.0976562,25.8046875 32.6484375,25.4492188 33.3125,25.2070312 C33.9765625,24.9648438 34.7460938,24.84375 35.6210938,24.84375 C36.2929688,24.84375 36.90625,24.953125 37.4609375,25.171875 C38.015625,25.390625 38.4960938,25.703125 38.9023438,26.109375 C39.2929688,26.53125 39.5976562,27.0390625 39.8164062,27.6328125 C40.0351562,28.2265625 40.1445312,28.90625 40.1445312,29.671875 C40.1445312,30.1875 40.0625,30.71875 39.8984375,31.265625 C39.734375,31.8125 39.4726562,32.3984375 39.1132812,33.0234375 C38.7382812,33.6640625 38.2539062,34.3671875 37.6601562,35.1328125 C37.0664062,35.8984375 36.3398438,36.75 35.4804688,37.6875 L24.4414062,49.546875 L24.4414062,54 L47.7148438,54 Z" fill="#FFFFFF" fill-rule="nonzero"></path>
        </g>
    </g>
</svg>