<svg width="72px" height="72px" viewBox="0 0 72 72" version="1.1" xmlns="http://www.w3.org/2000/svg" xmlns:xlink="http://www.w3.org/1999/xlink">
    <g id="Symbols" stroke="none" stroke-width="1" fill="none" fill-rule="evenodd">
        <g id="zero">
            <rect id="Rectangle" x="0" y="0" width="72" height="72" rx="8"></rect>
            <path d="M47.6210938,41.015625 L47.6210938,32.859375 C47.6210938,30.65625 47.3632812,28.7148438 46.8476562,27.0351562 C46.3320312,25.3554688 45.5976562,23.9453125 44.6445312,22.8046875 C43.6757812,21.6796875 42.5039062,20.828125 41.1289062,20.25 C39.7539062,19.671875 38.2070312,19.3828125 36.4882812,19.3828125 C34.7851562,19.3828125 33.25,19.671875 31.8828125,20.25 C30.515625,20.828125 29.3554688,21.6796875 28.4023438,22.8046875 C27.4335938,23.9453125 26.6914062,25.3554688 26.1757812,27.0351562 C25.6601562,28.7148438 25.4023438,30.65625 25.4023438,32.859375 L25.4023438,41.015625 C25.4023438,43.21875 25.6640625,45.1601562 26.1875,46.8398438 C26.7109375,48.5195312 27.4570312,49.921875 28.4257812,51.046875 C29.3789062,52.1875 30.5429688,53.046875 31.9179688,53.625 C33.2929688,54.203125 34.8320312,54.4921875 36.5351562,54.4921875 C38.2539062,54.4921875 39.8007812,54.203125 41.1757812,53.625 C42.5507812,53.046875 43.7148438,52.1875 44.6679688,51.046875 C45.6210938,49.921875 46.3515625,48.5195312 46.859375,46.8398438 C47.3671875,45.1601562 47.6210938,43.21875 47.6210938,41.015625 Z M31.9648438,38.203125 C31.9648438,37.71875 31.9648438,37.3515625 31.9648438,37.1015625 C31.9648438,36.8515625 31.9648438,36.3515625 31.9648438,35.6015625 L31.9648438,31.828125 C31.9648438,30.5625 32.0625,29.46875 32.2578125,28.546875 C32.453125,27.625 32.7539062,26.875 33.1601562,26.296875 C33.5351562,25.75 34,25.3398438 34.5546875,25.0664062 C35.109375,24.7929688 35.7539062,24.65625 36.4882812,24.65625 C37.1445312,24.65625 37.734375,24.7617188 38.2578125,24.9726562 C38.78125,25.1835938 39.2226562,25.5078125 39.5820312,25.9453125 C40.0507812,26.4921875 40.40625,27.2226562 40.6484375,28.1367188 C40.890625,29.0507812 41.0273438,30.1484375 41.0585938,31.4296875 L31.9648438,38.203125 Z M41.0585938,42 C41.0585938,43.265625 40.9609375,44.3632812 40.765625,45.2929688 C40.5703125,46.2226562 40.2773438,46.984375 39.8867188,47.578125 C39.5117188,48.140625 39.0429688,48.5585938 38.4804688,48.8320312 C37.9179688,49.1054688 37.2695312,49.2421875 36.5351562,49.2421875 C35.7382812,49.2421875 35.0507812,49.0859375 34.4726562,48.7734375 C33.8945312,48.4609375 33.4179688,47.984375 33.0429688,47.34375 C32.7148438,46.8125 32.4609375,46.1484375 32.28125,45.3515625 C32.1015625,44.5546875 31.9960938,43.640625 31.9648438,42.609375 L41.0585938,35.859375 C41.0585938,36.3125 41.0585938,36.6601562 41.0585938,36.9023438 C41.0585938,37.1445312 41.0585938,37.5234375 41.0585938,38.0390625 L41.0585938,42 Z" fill="#FFFFFF" fill-rule="nonzero"></path>
        </g>
    </g>
</svg>